# xmcd
#
# Track frame offsets:
#	150
#	13795
#	29581
#	39905
#	58655
#	73562
#	90029
#	111042
#	127422
#	146519
#	162401
#	179927
#	196110
#	210957
#	223068
#	239751
#	258809
#	274817
#	288265
#	305910
#	321978
#	338552
#	339715
#	340767
#	341928
#	343021
#	344468
#
# Disc length: 4604 seconds
#
# Revision: 1
# Processed by: cddbd v1.5.2PL0 Copyright (c) Steve Scherf et al.
# Submitted via: audiograbber 1.83.01
#
DISCID=b311fa1b
DTITLE=Various Artist - CDX 422
DYEAR=2007
DGENRE=Country
TTITLE0=Joe Nichols - Another side of you
TTITLE1=Bomshel - Calling all the angels
TTITLE2=Sunny Sweeney - If I could
TTITLE3=Tim McGraw and Faith Hill - I need you
TTITLE4=Steve Holy - Men buy the drinks (girls call the shots)
TTITLE5=Gretchen Wilson - One of the boys
TTITLE6=Keith Anderson - Sunday morning in America
TTITLE7=Sarah Jones - The one in the middle
TTITLE8=Cook and Glen (feat. Jeff Cook) - Shining star
TTITLE9=Whiskey Falls - Last train running
TTITLE10=Ty Herndon - Mighty mighty love
TTITLE11=Jason Meadows - 18 video tapes
TTITLE12=Brent Woodall and the Natchez Trace Band - Bright side of the road
TTITLE13=Jennifer LeMoss - Hell ain't frozen over yet
TTITLE14=Teresa James - Jackie's song
TTITLE15=Travis Rush - Just for tonight
TTITLE16=Davey T - Long night heartache
TTITLE17=The Naked Cowboy - Nothing to do with love
TTITLE18=Sherry Lynn - Scarecrow dance
TTITLE19=John Fee - The more he drinks the more he thinks
TTITLE20=Danny Davis - You live in my heart
TTITLE21=Julie Roberts - CMA Music Festival liner
TTITLE22=Josh Turner - CMA Music Festival liner
TTITLE23=Sugarland - CMA Music Festival liner
TTITLE24=Billy Currington - CMA Music Festival liner
TTITLE25=Catherine Britt - Ashley Monroe - CMA Music Festival liner
TTITLE26=Catherine Britt - CMA Music Festival liner
EXTD=
EXTT0=
EXTT1=
EXTT2=
EXTT3=
EXTT4=
EXTT5=
EXTT6=
EXTT7=
EXTT8=
EXTT9=
EXTT10=
EXTT11=
EXTT12=
EXTT13=
EXTT14=
EXTT15=
EXTT16=
EXTT17=
EXTT18=
EXTT19=
EXTT20=
EXTT21=
EXTT22=
EXTT23=
EXTT24=
EXTT25=
EXTT26=
PLAYORDER=
